<svg xmlns="http://www.w3.org/2000/svg" fill="none" viewBox="0 0 36 36">
  <path fill="#2563EB" d="M18 3C9.716 3 3 9.716 3 18c0 8.284 6.716 15 15 15 8.284 0 15-6.716 15-15 0-8.284-6.716-15-15-15z"/>
  <path fill="#FFF" d="M13 14a1 1 0 0 1 1-1h4a1 1 0 0 1 1 1v8a1 1 0 0 1-1 1h-4a1 1 0 0 1-1-1v-8z"/>
  <path fill="#FFF" d="M24 14a1 1 0 0 1 1-1h4a1 1 0 0 1 1 1v8a1 1 0 0 1-1 1h-4a1 1 0 0 1-1-1v-8z" opacity=".8"/>
  <path fill="#FFF" d="M25 23a1 1 0 0 1 1-1h4a1 1 0 0 1 1 1v4a1 1 0 0 1-1 1h-4a1 1 0 0 1-1-1v-4z" opacity=".6"/>
  <path fill="#FFF" d="M13 23a1 1 0 0 1 1-1h4a1 1 0 0 1 1 1v4a1 1 0 0 1-1 1h-4a1 1 0 0 1-1-1v-4z" opacity=".6"/>
</svg>